<?xml version="1.0" encoding="UTF-8"?>
<svg id="Layer_2" data-name="Layer 2" xmlns="http://www.w3.org/2000/svg" viewBox="0 0 1778.71 193">
  <defs>
    <style>
      .cls-1 {
        fill: #8e86b7;
      }

      .cls-2 {
        fill: #5ddee8;
      }

      .cls-3 {
        fill: #513a9c;
      }
    </style>
  </defs>
  <g id="Layer_1-2" data-name="Layer 1">
    <g>
      <path class="cls-3" d="m60.74,8.97H11.45c-3.08,0-5.87,1.17-8.08,3.38-2.21,2.21-3.37,5-3.37,8.08v151.74c0,3.08,1.17,5.88,3.37,8.07,2.21,2.21,5,3.38,8.08,3.38h49.2V14.92l.08-.32v-5.64Z"/>
      <path class="cls-2" d="m60.65,14.23c0-.05.04-.1.05-.15H16.57c-1.73,0-3.21.63-4.46,1.88-1.25,1.26-1.88,2.74-1.88,4.46v151.74c0,1.72.62,3.21,1.88,4.46,1.25,1.25,2.74,1.88,4.46,1.88h44.09V14.23Z"/>
      <path class="cls-3" d="m227.86,183.61c-3.08,0-5.88-1.17-8.08-3.38-2.2-2.19-3.37-4.99-3.37-8.07V20.42c0-3.08,1.17-5.87,3.38-8.08,2.21-2.21,5-3.38,8.08-3.38h50.74c3.07,0,5.86,1.17,8.07,3.37,2.22,2.22,3.38,5.02,3.38,8.08v104.82h74.98c3.07,0,5.86,1.17,8.07,3.37,2.22,2.22,3.38,5.01,3.38,8.08v35.47c0,3.08-1.17,5.87-3.38,8.08-2.21,2.21-5,3.38-8.08,3.38h-137.18Z"/>
      <path class="cls-2" d="m291.05,130.35h80.1c1.72,0,3.21.63,4.46,1.88,1.25,1.26,1.88,2.74,1.88,4.46v35.47c0,1.72-.63,3.21-1.88,4.46-1.25,1.25-2.74,1.88-4.46,1.88h-137.18c-1.72,0-3.21-.62-4.46-1.88-1.26-1.25-1.88-2.74-1.88-4.46V20.42c0-1.72.62-3.21,1.88-4.46,1.25-1.25,2.74-1.88,4.46-1.88h50.74c1.72,0,3.21.63,4.46,1.88,1.25,1.26,1.88,2.74,1.88,4.46v109.93Z"/>
      <path class="cls-3" d="m413.66,183.61c-3.08,0-5.88-1.17-8.08-3.38-2.2-2.19-3.37-4.99-3.37-8.07v-35.47c0-3.08,1.17-5.87,3.38-8.08,2.21-2.21,5-3.38,8.08-3.38h37.87v-57.89h-37.87c-3.08,0-5.88-1.17-8.08-3.38-2.2-2.2-3.37-4.99-3.37-8.07V20.42c0-3.08,1.17-5.87,3.38-8.08,2.21-2.21,5-3.38,8.08-3.38h148.92c3.07,0,5.86,1.17,8.07,3.37,2.22,2.22,3.38,5.02,3.38,8.08v35.47c0,3.08-1.17,5.87-3.38,8.08-2.21,2.21-5.01,3.38-8.08,3.38h-37.4v57.89h37.4c3.07,0,5.86,1.17,8.07,3.37,2.22,2.22,3.38,5.02,3.38,8.08v35.47c0,3.08-1.17,5.87-3.38,8.08-2.21,2.21-5,3.38-8.08,3.38h-148.92Z"/>
      <path class="cls-2" d="m568.69,62.23h-42.51v68.12h42.51c1.72,0,3.21.63,4.46,1.88,1.25,1.26,1.88,2.74,1.88,4.46v35.47c0,1.72-.63,3.21-1.88,4.46-1.26,1.25-2.74,1.88-4.46,1.88h-148.92c-1.72,0-3.21-.62-4.46-1.88-1.26-1.25-1.88-2.74-1.88-4.46v-35.47c0-1.72.62-3.21,1.88-4.46s2.74-1.88,4.46-1.88h42.99V62.23h-42.99c-1.72,0-3.21-.62-4.46-1.88-1.26-1.25-1.88-2.74-1.88-4.46V20.42c0-1.72.62-3.21,1.88-4.46s2.74-1.88,4.46-1.88h148.92c1.72,0,3.21.63,4.46,1.88,1.25,1.26,1.88,2.74,1.88,4.46v35.47c0,1.72-.63,3.21-1.88,4.46-1.26,1.25-2.74,1.88-4.46,1.88Z"/>
      <path class="cls-3" d="m663.58,183.61c-3.08,0-5.88-1.17-8.08-3.38-2.2-2.19-3.37-4.99-3.37-8.07v-102.47h-45.39c-3.08,0-5.88-1.17-8.08-3.38-2.2-2.2-3.37-4.99-3.37-8.07V20.42c0-3.08,1.17-5.87,3.38-8.08,2.21-2.21,5-3.38,8.08-3.38h162.07c3.07,0,5.86,1.17,8.07,3.37,2.22,2.22,3.38,5.01,3.38,8.08v37.82c0,3.08-1.17,5.87-3.38,8.08-2.21,2.21-5,3.38-8.08,3.38h-45.39v102.47c0,3.08-1.17,5.87-3.38,8.08-2.21,2.21-5,3.37-8.08,3.37h-48.39Z"/>
      <path class="cls-2" d="m612.85,14.08h162.07c1.72,0,3.21.63,4.46,1.88,1.25,1.26,1.88,2.74,1.88,4.46v37.82c0,1.72-.63,3.21-1.88,4.46-1.26,1.25-2.74,1.88-4.46,1.88h-50.5v107.58c0,1.72-.63,3.21-1.88,4.46-1.26,1.25-2.74,1.88-4.46,1.88h-48.39c-1.72,0-3.21-.62-4.46-1.88-1.26-1.25-1.88-2.74-1.88-4.46v-107.58h-50.5c-1.72,0-3.21-.62-4.46-1.88-1.26-1.25-1.88-2.74-1.88-4.46V20.42c0-1.72.62-3.21,1.88-4.46s2.74-1.88,4.46-1.88Z"/>
      <path class="cls-3" d="m805.87,183.61c-3.08,0-5.88-1.17-8.09-3.38-2.2-2.19-3.37-4.99-3.37-8.07v-33.82c0-6.37,2.85-10.08,5.3-12.1l64.4-58.9h-53.31c-3.08,0-5.88-1.17-8.08-3.38-2.2-2.2-3.37-4.99-3.37-8.07V20.42c0-3.08,1.17-5.87,3.38-8.08s5-3.38,8.08-3.38h140.93c3.07,0,5.87,1.17,8.08,3.38,2.21,2.22,3.38,5.01,3.38,8.08v33.59c0,4.69-1.63,8.67-4.7,11.51l-63.81,59.72h61.99c3.07,0,5.86,1.17,8.07,3.37,2.22,2.22,3.38,5.01,3.38,8.08v35.47c0,3.08-1.17,5.87-3.38,8.08-2.21,2.21-5,3.37-8.08,3.37h-150.8Z"/>
      <path class="cls-2" d="m962.78,130.35c1.72,0,3.21.63,4.46,1.88,1.25,1.26,1.88,2.74,1.88,4.46v35.47c0,1.72-.63,3.21-1.88,4.46-1.26,1.25-2.74,1.88-4.46,1.88h-150.8c-1.73,0-3.21-.62-4.46-1.88-1.26-1.25-1.88-2.74-1.88-4.46v-33.82c0-3.6,1.17-6.34,3.52-8.22l74.22-67.88h-66.47c-1.72,0-3.21-.62-4.46-1.88-1.26-1.25-1.88-2.74-1.88-4.46V20.42c0-1.72.62-3.21,1.88-4.46s2.74-1.88,4.46-1.88h140.93c1.72,0,3.21.63,4.46,1.88,1.25,1.26,1.88,2.74,1.88,4.46v33.59c0,3.29-1.02,5.87-3.06,7.75l-73.29,68.59h74.93Z"/>
      <path class="cls-3" d="m1076.05,193c-16.04,0-30.89-2.7-44.15-8.04-13.65-5.48-24.9-14.62-33.46-27.15-8.63-12.64-13.01-28.25-13.01-46.42v-29.79c0-18.16,4.37-33.81,13-46.53,16-23.28,42.74-35.07,79.49-35.07,14.7,0,28.18,2.1,40.06,6.25,12.03,4.2,21.87,9.83,29.25,16.74,14.92,14.16,22.47,30.16,22.47,47.59,0,3.04-1.05,5.79-3.05,7.96-1.98,2.15-4.48,3.28-7.23,3.28h-50.74c-3.76,0-9.05-1.67-12.86-9.61-1.7-3.54-3.78-6.22-6.17-7.97-1.56-1.13-4.97-2.49-12.33-2.49-5.8,0-10.45,1.43-13.83,4.24-3.02,2.52-4.43,5.99-4.43,10.93v39.16c0,4.94,1.41,8.41,4.43,10.93,3.38,2.82,8.03,4.24,13.83,4.24,7.37,0,10.77-1.36,12.33-2.49,2.39-1.74,4.47-4.43,6.17-7.97,3.81-7.94,9.1-9.61,12.86-9.61h50.74c2.75,0,5.25,1.13,7.22,3.27,2,2.17,3.06,4.92,3.06,7.96,0,17.43-7.55,33.44-22.45,47.57-7.41,6.94-17.25,12.57-29.28,16.77-11.88,4.14-25.99,6.25-41.94,6.25Z"/>
      <path class="cls-1" d="m1060.08,76.92v39.16c0,6.69,2.15,11.83,6.46,15.42,4.3,3.59,9.94,5.38,16.91,5.38s12.02-1.14,15.15-3.43c3.13-2.28,5.75-5.63,7.87-10.03,2.11-4.4,4.89-6.61,8.34-6.61h50.73c1.41,0,2.62.55,3.64,1.66,1.02,1.1,1.53,2.42,1.53,3.94,0,15.79-6.89,30.23-20.67,43.3-6.89,6.46-16.05,11.68-27.48,15.67-11.43,3.99-24.9,5.98-40.4,5.98s-29.64-2.56-42.4-7.7c-12.76-5.13-23.14-13.54-31.12-25.24-7.99-11.69-11.98-26.04-11.98-43.03v-29.79c0-16.99,3.99-31.38,11.98-43.16,15.03-21.88,40.17-32.81,75.4-32.81,14.25,0,27.09,2,38.52,5.99,11.43,3.99,20.59,9.21,27.48,15.66,13.78,13.07,20.67,27.5,20.67,43.3,0,1.53-.51,2.84-1.53,3.95-1.02,1.1-2.23,1.65-3.64,1.65h-50.73c-3.45,0-6.23-2.2-8.34-6.61s-4.74-7.75-7.87-10.03c-3.13-2.28-8.19-3.43-15.15-3.43s-12.61,1.8-16.91,5.38c-4.31,3.59-6.46,8.73-6.46,15.42Z"/>
      <path class="cls-3" d="m1424.97,183.61c-3.08,0-5.88-1.17-8.08-3.38-2.2-2.19-3.37-4.99-3.37-8.07V20.42c0-3.08,1.17-5.87,3.38-8.08,2.21-2.21,5-3.38,8.08-3.38h74.93c17.73,0,33.4,2.39,46.59,7.11,13.61,4.87,24.78,13.23,33.19,24.83,8.44,11.65,12.72,26.25,12.72,43.4v23.96c0,26.74-9.29,46.58-27.62,58.97-16.31,10.87-38.13,16.38-64.87,16.38h-74.93Zm76.11-56.03c6.11,0,10.91-1.39,14.26-4.13,3.08-2.52,4.58-6.11,4.58-10.96v-32.41c0-4.85-1.5-8.44-4.58-10.96-3.35-2.74-8.15-4.13-14.26-4.13h-16.26v62.59h16.26Z"/>
      <path class="cls-1" d="m1432.09,14.08h74.93c17.22,0,32.18,2.27,44.86,6.81,12.68,4.54,22.94,12.21,30.77,23.02,7.83,10.8,11.74,24.27,11.74,40.4v23.96c0,25.06-8.46,43.3-25.37,54.73-15.5,10.34-36.17,15.5-62.01,15.5h-74.93c-1.72,0-3.21-.62-4.46-1.88-1.26-1.25-1.88-2.74-1.88-4.46V20.42c0-1.72.62-3.21,1.88-4.46,1.25-1.25,2.74-1.88,4.46-1.88Zm54.73,45.8v72.82h21.38c7.36,0,13.19-1.76,17.5-5.28,4.3-3.52,6.46-8.49,6.46-14.92v-32.41c0-6.42-2.15-11.39-6.46-14.92-4.31-3.52-10.14-5.28-17.5-5.28h-21.38Z"/>
      <path class="cls-3" d="m1617.53,183.61c-3.08,0-5.87-1.17-8.08-3.38-2.2-2.19-3.37-4.99-3.37-8.07V20.42c0-3.08,1.17-5.87,3.38-8.08,2.21-2.21,5-3.38,8.08-3.38h146.1c3.07,0,5.86,1.17,8.07,3.37,2.22,2.22,3.38,5.01,3.38,8.08v33.12c0,3.08-1.17,5.87-3.38,8.08-2.21,2.21-5,3.38-8.08,3.38h-86.26v4.57h73.34c3.07,0,5.86,1.17,8.07,3.37,2.22,2.23,3.38,5.02,3.38,8.08v30.54c0,3.07-1.17,5.87-3.38,8.08-2.21,2.21-5,3.38-8.08,3.38h-73.34v4.57h88.61c3.07,0,5.87,1.17,8.07,3.37,2.21,2.22,3.38,5.01,3.38,8.08v33.12c0,3.08-1.17,5.87-3.38,8.08-2.2,2.21-5,3.37-8.07,3.37h-148.45Z"/>
      <path class="cls-1" d="m1678.65,132.7h93.72c1.72,0,3.21.63,4.46,1.88,1.25,1.26,1.88,2.74,1.88,4.46v33.12c0,1.72-.63,3.21-1.88,4.46s-2.74,1.88-4.46,1.88h-148.45c-1.72,0-3.21-.62-4.46-1.88-1.26-1.25-1.88-2.74-1.88-4.46V20.42c0-1.72.62-3.21,1.88-4.46s2.74-1.88,4.46-1.88h146.1c1.72,0,3.21.63,4.46,1.88,1.25,1.26,1.88,2.74,1.88,4.46v33.12c0,1.72-.63,3.21-1.88,4.46s-2.74,1.88-4.46,1.88h-91.37v14.8h78.45c1.72,0,3.21.63,4.46,1.88,1.25,1.26,1.88,2.74,1.88,4.46v30.54c0,1.72-.63,3.21-1.88,4.46-1.25,1.26-2.74,1.88-4.46,1.88h-78.45v14.8Z"/>
      <path class="cls-3" d="m83.56,184.44c-1.73,0-3.46-.01-5.19-.03l-5.05-.05-.06-35.64,4.9-.21c5.9-.26,11.64-.67,17.05-1.23,1.21-.12,2.71-.28,3.5-.72,1.27-.7,2.03-3.07,2.14-6.68.07-2.16.03-4.35,0-6.66-.11-7.01-.22-14.26,2.54-21.35,2.26-5.82,6.35-10.82,11.56-14.44-3.45-2.48-6.4-5.89-8.52-10.03-4.25-8.27-5.29-17.31-5.77-25.85-.09-1.61-.02-3.34.06-5.17.17-3.92.4-9.3-1.64-10.39-2.88-1.54-6.88-.68-10-.56-4.81.17-9.63.29-14.44.45,0,0-.06-35.48-.06-35.48,13.26-1.3,26.52-.7,39.79-.13,10.53.45,21.33,2.73,30.4,8.31,4.39,2.7,7.52,5.71,9.56,9.18,1.96,3.34,2.8,6.94,3.42,10.06,1.26,6.27,2.11,12.69,2.51,19.07.05.72.09,1.44.13,2.16.22,3.85.42,7.49,1.44,10.76,2.28,7.29,10.7,10.54,27.3,10.54,1.85,0,3.64-.03,5.34-.07,0,0,5.22-.12,5.22-.12.02,9.86.03,19.73.05,29.59-6.55.27-12.96,1.74-19.39,2.94-6.93,1.29-11.5,2.75-15.84,6.71-2.52,2.31-3.28,6.07-3.47,8.82-.16,2.37-.02,4.83.13,7.44.11,1.84.22,3.74.22,5.68.02,11.28-2.08,25.23-18.66,33-18.99,8.9-40.58,10.1-59.2,10.1Z"/>
      <path class="cls-2" d="m200.71,85.39c-13.5.32-33.15.29-37.63-14.05-1.42-4.55-1.49-9.37-1.79-14.12-.39-6.17-1.2-12.32-2.42-18.39-.59-2.92-1.29-5.88-2.82-8.48-1.82-3.09-4.71-5.5-7.83-7.42-9.79-6.02-21.86-7.65-33.51-7.74-9.12-.07-19.44-1.08-28.88-.16l.04,25.63c4.08-.09,8.14-.19,12.26-.53,3.23-.27,6.64-.16,9.48,1.35,6.35,3.38,3.95,13.92,4.28,19.78.46,8.11,1.42,16.42,5.22,23.8,3.44,6.69,10.19,12.05,18.29,11.79-9.46,1.79-17.73,8.17-21.12,16.86-3.23,8.29-1.92,17.46-2.19,26.31-.13,4.15-1.02,8.92-4.79,11-1.63.9-3.56,1.13-5.44,1.32-5.77.6-11.56,1-17.35,1.25l.04,25.69c21.37.22,43.13-.67,62.16-9.59,12.46-5.84,15.75-15.55,15.72-28.36,0-4.5-.65-8.99-.35-13.48s1.71-9.13,5.12-12.25c5.38-4.92,11.1-6.61,18.35-7.96,3.68-.69,7.37-1.38,11.05-2.06,1.37-.26,2.77-.5,4.16-.6l-.03-19.6Z"/>
      <g>
        <path class="cls-3" d="m1280.62,190.44c1.3,0,5.26,0,7.02-3.61,1.17-2.38.99-5.83-1.97-8.26-15.58-14.1-27.1-27.81-34.24-40.74-6.97-12.64-10.51-25.44-10.51-38.05s3.58-25.25,10.64-37.94c7.26-13.04,18.78-26.83,34.24-40.98,3.28-2.99,2.64-6.19,2.21-7.43-.98-2.86-3.48-4.31-7.4-4.31h-22.16c-2.78,0-5.37.98-7.49,2.82-3.4,2.96-7.51,5.67-11.87,8.53-3.79,2.49-7.72,5.07-11.25,7.91-6.89,5.54-15.74,12.95-23.19,21.17-25.22,27.87-24.68,64.29,1.44,97.41,10.35,13.13,25.1,26.48,45.08,40.83,2.08,1.73,4.58,2.64,7.27,2.64h22.16Z"/>
        <path class="cls-1" d="m1216.41,143.38c-22.2-28.08-26.95-62.08-1.69-89.93,6.55-7.22,14.4-13.99,22.63-20.59,7.26-5.82,16.53-10.66,23.34-16.58,1.2-1.04,2.6-1.57,4.2-1.57h22.21c2.6,0,3.2.64,1.8,1.91-16.01,14.61-27.81,28.74-35.42,42.36-7.6,13.63-11.41,27.23-11.41,40.8,0,13.69,3.75,27.31,11.26,40.88,7.5,13.57,19.36,27.66,35.57,42.28.6.46.8.9.6,1.3-.2.41-1,.61-2.4.61h-22.21c-1.6,0-3-.52-4.2-1.57-17.61-12.6-33.11-25.78-44.28-39.92Z"/>
      </g>
      <g>
        <path class="cls-3" d="m1306.07,190.44c-1.3,0-5.26,0-7.02-3.61-1.17-2.38-.99-5.83,1.97-8.26,15.58-14.1,27.1-27.81,34.24-40.74,6.97-12.64,10.51-25.44,10.51-38.05s-3.58-25.25-10.64-37.94c-7.26-13.04-18.78-26.83-34.24-40.98-3.28-2.99-2.64-6.19-2.21-7.43.98-2.86,3.48-4.31,7.4-4.31h22.16c2.78,0,5.37.98,7.49,2.82,3.4,2.96,7.51,5.67,11.87,8.53,3.79,2.49,7.72,5.07,11.25,7.91,6.89,5.54,15.74,12.95,23.19,21.17,25.22,27.87,24.68,64.29-1.44,97.41-10.35,13.13-25.1,26.48-45.08,40.83-2.08,1.73-4.58,2.64-7.27,2.64h-22.16Z"/>
        <path class="cls-1" d="m1325.99,183.29c-1.2,1.04-2.6,1.57-4.2,1.57h-22.21c-1.4,0-2.2-.2-2.4-.61-.2-.41,0-.84.6-1.3,16.21-14.61,28.07-28.71,35.57-42.28,7.5-13.57,11.26-27.2,11.26-40.88,0-13.57-3.8-27.17-11.41-40.8-7.61-13.63-19.41-27.75-35.42-42.36-1.4-1.28-.8-1.91,1.8-1.91h22.21c1.6,0,3,.52,4.2,1.57,6.81,5.92,16.08,10.76,23.34,16.58,8.23,6.6,16.08,13.38,22.63,20.59,25.27,27.85,20.52,61.85-1.69,89.93-11.17,14.13-26.68,27.32-44.28,39.92Z"/>
      </g>
    </g>
  </g>
</svg>