<svg width="214.144" height="37.576" viewBox="0 0 214.144 37.576" xmlns="http://www.w3.org/2000/svg"><g id="svgGroup" stroke-linecap="round" fill-rule="nonzero" font-size="9pt" stroke="#000000" stroke-width="1" fill="#000" style="stroke:#000000;stroke-width:1;fill:#000"><path d="M 38.696 33.208 L 42.448 10.192 L 47.208 10.192 L 42.168 37.52 L 35.504 37.52 L 32.256 16.856 L 29.008 37.52 L 22.344 37.52 L 17.36 10.192 L 22.12 10.192 L 25.76 33.208 L 29.288 10.192 L 35.28 10.192 L 38.696 33.208 Z M 131.32 8.064 L 131.32 31.976 A 4.215 4.215 0 0 0 131.34 32.407 Q 131.385 32.836 131.526 33.088 A 0.794 0.794 0 0 0 131.656 33.264 Q 131.929 33.537 132.645 33.588 A 4.985 4.985 0 0 0 133 33.6 L 134.568 33.6 L 134.568 37.576 L 131.432 37.576 A 9.098 9.098 0 0 1 129.997 37.471 Q 128.38 37.212 127.484 36.316 Q 126.415 35.247 126.253 33.31 A 8.629 8.629 0 0 1 126.224 32.592 L 126.224 7.392 A 7.35 7.35 0 0 1 126.353 5.967 Q 126.516 5.144 126.884 4.507 A 3.775 3.775 0 0 1 127.484 3.724 Q 128.452 2.756 130.264 2.532 A 9.528 9.528 0 0 1 131.432 2.464 L 134.904 2.464 L 134.904 6.44 L 133 6.44 Q 132.261 6.44 131.884 6.605 A 0.821 0.821 0 0 0 131.656 6.748 A 0.76 0.76 0 0 0 131.481 7.005 Q 131.368 7.26 131.334 7.68 A 4.851 4.851 0 0 0 131.32 8.064 Z M 152.208 0.056 L 152.208 37.52 L 147.168 37.52 L 147.168 0.056 L 152.208 0.056 Z M 60.312 5.544 L 65.408 5.544 L 65.408 31.584 A 4.215 4.215 0 0 0 65.428 32.015 Q 65.473 32.444 65.614 32.696 A 0.794 0.794 0 0 0 65.744 32.872 Q 66.08 33.208 67.032 33.208 L 69.16 33.208 L 69.16 37.52 L 65.576 37.52 Q 63.926 37.52 62.813 37.064 A 3.722 3.722 0 0 1 61.572 36.26 A 4.036 4.036 0 0 1 60.573 34.546 Q 60.378 33.906 60.329 33.133 A 8.477 8.477 0 0 1 60.312 32.592 L 60.312 5.544 Z M 57.736 10.192 L 57.736 14.28 L 69.16 14.28 L 69.16 10.192 L 57.736 10.192 Z M 72.576 5.544 L 77.672 5.544 L 77.672 31.584 A 4.215 4.215 0 0 0 77.692 32.015 Q 77.737 32.444 77.878 32.696 A 0.794 0.794 0 0 0 78.008 32.872 Q 78.344 33.208 79.296 33.208 L 81.424 33.208 L 81.424 37.52 L 77.84 37.52 Q 76.19 37.52 75.077 37.064 A 3.722 3.722 0 0 1 73.836 36.26 A 4.036 4.036 0 0 1 72.837 34.546 Q 72.642 33.906 72.593 33.133 A 8.477 8.477 0 0 1 72.576 32.592 L 72.576 5.544 Z M 70 10.192 L 70 14.28 L 81.424 14.28 L 81.424 10.192 L 70 10.192 Z M 193.424 15.176 L 193.424 37.52 L 188.384 37.52 L 188.384 15.904 Q 188.384 15.187 188.214 14.824 A 0.743 0.743 0 0 0 188.048 14.588 Q 187.78 14.342 187.083 14.293 A 5.359 5.359 0 0 0 186.704 14.28 L 184.744 14.28 Q 183.792 14.28 183.344 14.728 A 1.29 1.29 0 0 0 183.062 15.172 Q 182.896 15.592 182.896 16.24 L 182.896 18.032 L 182.672 18.032 L 182.672 14 Q 182.672 11.984 183.68 11.088 Q 184.688 10.192 186.368 10.192 L 188.384 10.192 Q 190.96 10.192 192.192 11.452 A 3.994 3.994 0 0 1 193.126 13.042 Q 193.424 13.963 193.424 15.176 Z M 5.88 37.52 L 5.88 3.136 L 10.92 3.136 L 10.92 37.52 L 5.88 37.52 Z M 54.992 10.192 L 54.992 37.52 L 49.952 37.52 L 49.952 10.192 L 54.992 10.192 Z M 182.896 13.944 L 182.896 37.52 L 177.856 37.52 L 177.856 10.192 L 182.896 10.192 L 182.896 13.608 L 182.896 13.944 Z M 109.648 15.288 L 109.648 37.52 L 104.608 37.52 L 104.608 10.192 L 109.648 10.192 L 109.648 15.288 Z M 161.84 15.848 L 161.84 28.616 L 156.856 28.616 L 156.856 15.176 A 7.855 7.855 0 0 1 156.976 13.754 Q 157.241 12.318 158.088 11.452 A 3.713 3.713 0 0 1 159.474 10.58 Q 160.517 10.192 162.008 10.192 L 165.2 10.192 L 165.2 14.168 L 163.52 14.168 Q 162.781 14.168 162.404 14.333 A 0.821 0.821 0 0 0 162.176 14.476 A 0.74 0.74 0 0 0 162.006 14.726 Q 161.841 15.098 161.84 15.84 A 6.662 6.662 0 0 0 161.84 15.848 Z M 156.856 25.872 L 156.856 32.592 A 8.568 8.568 0 0 0 156.878 33.208 Q 156.932 33.97 157.128 34.601 A 4.036 4.036 0 0 0 158.088 36.26 Q 159.32 37.52 162.008 37.52 L 165.032 37.52 L 165.032 33.544 L 163.52 33.544 A 4.985 4.985 0 0 1 163.165 33.532 Q 162.449 33.481 162.176 33.208 Q 161.919 32.951 161.858 32.3 A 4.745 4.745 0 0 1 161.84 31.864 L 161.84 25.872 L 156.856 25.872 Z M 0 2.464 L 16.8 2.464 L 16.8 6.552 L 0 6.552 L 0 2.464 Z M 168.224 31.864 L 168.224 26.208 L 173.208 26.208 L 173.208 32.592 A 7.552 7.552 0 0 1 173.088 33.985 Q 172.937 34.788 172.596 35.415 A 3.78 3.78 0 0 1 171.976 36.26 Q 171.06 37.197 169.309 37.437 A 9.648 9.648 0 0 1 168 37.52 L 164.584 37.52 L 164.584 33.544 L 166.544 33.544 A 5.291 5.291 0 0 0 166.973 33.528 Q 167.667 33.471 167.91 33.214 A 0.535 0.535 0 0 0 167.916 33.208 Q 168.162 32.94 168.211 32.243 A 5.359 5.359 0 0 0 168.224 31.864 Z M 173.208 28.56 L 173.208 15.176 Q 173.208 13.963 172.91 13.042 A 3.994 3.994 0 0 0 171.976 11.452 A 3.622 3.622 0 0 0 170.733 10.639 Q 169.635 10.192 168 10.192 L 164.864 10.192 L 164.864 14.168 L 166.544 14.168 Q 167.608 14.168 167.916 14.476 A 0.524 0.524 0 0 1 167.936 14.498 Q 168.159 14.747 168.209 15.419 A 5.769 5.769 0 0 1 168.224 15.848 L 168.224 28.56 L 173.208 28.56 Z M 142.632 13.44 L 137.48 13.44 L 137.48 8.064 A 5.209 5.209 0 0 0 137.465 7.656 Q 137.413 6.989 137.172 6.748 A 0.75 0.75 0 0 0 136.931 6.594 Q 136.569 6.44 135.856 6.44 L 134.008 6.44 L 134.008 2.464 L 137.368 2.464 Q 139.018 2.464 140.131 2.92 A 3.722 3.722 0 0 1 141.372 3.724 A 4.036 4.036 0 0 1 142.371 5.438 Q 142.566 6.078 142.615 6.851 A 8.477 8.477 0 0 1 142.632 7.392 L 142.632 13.44 Z M 137.48 31.976 L 137.48 26.656 L 142.632 26.656 L 142.632 32.592 A 7.685 7.685 0 0 1 142.509 34.014 Q 142.238 35.45 141.372 36.316 A 3.795 3.795 0 0 1 139.985 37.177 Q 139.383 37.401 138.634 37.499 A 9.765 9.765 0 0 1 137.368 37.576 L 134.008 37.576 L 134.008 33.6 L 135.856 33.6 Q 136.573 33.6 136.936 33.43 A 0.743 0.743 0 0 0 137.172 33.264 Q 137.422 32.991 137.469 32.312 A 4.879 4.879 0 0 0 137.48 31.976 Z M 86.128 21.728 L 100.296 21.728 L 100.296 25.424 L 86.128 25.424 L 86.128 21.728 Z M 89.264 15.792 A 4.851 4.851 0 0 1 89.278 15.408 Q 89.312 14.988 89.425 14.733 A 0.76 0.76 0 0 1 89.6 14.476 A 0.821 0.821 0 0 1 89.828 14.333 Q 90.205 14.168 90.944 14.168 L 92.624 14.168 L 92.624 10.192 L 89.544 10.192 A 9.528 9.528 0 0 0 88.376 10.26 Q 86.564 10.484 85.596 11.452 Q 84.73 12.318 84.459 13.754 A 7.685 7.685 0 0 0 84.336 15.176 L 84.336 32.592 A 8.477 8.477 0 0 0 84.353 33.133 Q 84.402 33.906 84.597 34.546 A 4.036 4.036 0 0 0 85.596 36.26 Q 86.492 37.156 88.109 37.415 A 9.098 9.098 0 0 0 89.544 37.52 L 92.344 37.52 L 92.344 33.544 L 90.944 33.544 A 4.985 4.985 0 0 1 90.589 33.532 Q 89.873 33.481 89.6 33.208 A 0.794 0.794 0 0 1 89.47 33.032 Q 89.329 32.78 89.284 32.351 A 4.215 4.215 0 0 1 89.264 31.92 L 89.264 15.792 Z M 100.296 24.696 L 100.296 15.176 A 8.629 8.629 0 0 0 100.267 14.458 Q 100.105 12.521 99.036 11.452 A 3.722 3.722 0 0 0 97.795 10.648 Q 96.682 10.192 95.032 10.192 L 91.896 10.192 L 91.896 14.168 L 93.688 14.168 Q 94.401 14.168 94.763 14.322 A 0.75 0.75 0 0 1 95.004 14.476 Q 95.245 14.717 95.297 15.384 A 5.209 5.209 0 0 1 95.312 15.792 L 95.312 24.696 L 100.296 24.696 Z M 199.976 21.728 L 214.144 21.728 L 214.144 25.424 L 199.976 25.424 L 199.976 21.728 Z M 203.112 15.792 A 4.851 4.851 0 0 1 203.126 15.408 Q 203.16 14.988 203.273 14.733 A 0.76 0.76 0 0 1 203.448 14.476 A 0.821 0.821 0 0 1 203.676 14.333 Q 204.053 14.168 204.792 14.168 L 206.472 14.168 L 206.472 10.192 L 203.392 10.192 A 9.528 9.528 0 0 0 202.224 10.26 Q 200.412 10.484 199.444 11.452 Q 198.578 12.318 198.307 13.754 A 7.685 7.685 0 0 0 198.184 15.176 L 198.184 32.592 A 8.477 8.477 0 0 0 198.201 33.133 Q 198.25 33.906 198.445 34.546 A 4.036 4.036 0 0 0 199.444 36.26 Q 200.34 37.156 201.957 37.415 A 9.098 9.098 0 0 0 203.392 37.52 L 206.192 37.52 L 206.192 33.544 L 204.792 33.544 A 4.985 4.985 0 0 1 204.437 33.532 Q 203.721 33.481 203.448 33.208 A 0.794 0.794 0 0 1 203.318 33.032 Q 203.177 32.78 203.132 32.351 A 4.215 4.215 0 0 1 203.112 31.92 L 203.112 15.792 Z M 214.144 24.696 L 214.144 15.176 A 8.629 8.629 0 0 0 214.115 14.458 Q 213.953 12.521 212.884 11.452 A 3.722 3.722 0 0 0 211.643 10.648 Q 210.53 10.192 208.88 10.192 L 205.744 10.192 L 205.744 14.168 L 207.536 14.168 Q 208.249 14.168 208.611 14.322 A 0.75 0.75 0 0 1 208.852 14.476 Q 209.093 14.717 209.145 15.384 A 5.209 5.209 0 0 1 209.16 15.792 L 209.16 24.696 L 214.144 24.696 Z M 95.2 31.864 L 95.2 29.624 L 100.128 29.624 L 100.128 32.592 A 7.552 7.552 0 0 1 100.008 33.985 Q 99.857 34.788 99.516 35.415 A 3.78 3.78 0 0 1 98.896 36.26 Q 97.98 37.197 96.229 37.437 A 9.648 9.648 0 0 1 94.92 37.52 L 91.896 37.52 L 91.896 33.544 L 93.52 33.544 A 5.291 5.291 0 0 0 93.949 33.528 Q 94.643 33.471 94.886 33.214 A 0.535 0.535 0 0 0 94.892 33.208 Q 95.138 32.94 95.187 32.243 A 5.359 5.359 0 0 0 95.2 31.864 Z M 209.048 31.864 L 209.048 29.624 L 213.976 29.624 L 213.976 32.592 A 7.552 7.552 0 0 1 213.856 33.985 Q 213.705 34.788 213.364 35.415 A 3.78 3.78 0 0 1 212.744 36.26 Q 211.828 37.197 210.077 37.437 A 9.648 9.648 0 0 1 208.768 37.52 L 205.744 37.52 L 205.744 33.544 L 207.368 33.544 A 5.291 5.291 0 0 0 207.797 33.528 Q 208.491 33.471 208.734 33.214 A 0.535 0.535 0 0 0 208.74 33.208 Q 208.986 32.94 209.035 32.243 A 5.359 5.359 0 0 0 209.048 31.864 Z M 114.072 10.136 L 115.192 10.136 L 115.192 14.56 L 113.176 14.56 A 4.325 4.325 0 0 0 111.685 14.796 Q 109.781 15.493 109.657 18.253 A 8.793 8.793 0 0 0 109.648 18.648 L 109.648 19.824 L 109.424 19.824 L 109.424 15.064 A 5.403 5.403 0 0 1 109.846 12.991 A 6.316 6.316 0 0 1 109.956 12.74 Q 110.488 11.592 111.524 10.864 Q 112.56 10.136 114.072 10.136 Z M 55.104 4.984 L 49.84 4.984 L 49.84 0 L 55.104 0 L 55.104 4.984 Z" vector-effect="non-scaling-stroke"/></g></svg>