<svg width="367.104" height="64.416" viewBox="0 0 367.104 64.416" xmlns="http://www.w3.org/2000/svg"><g id="svgGroup" stroke-linecap="round" fill-rule="nonzero" font-size="9pt" stroke="#000000" stroke-width="1" fill="#000" style="stroke:#000000;stroke-width:1;fill:#000"><path d="M 66.336 56.928 L 72.768 17.472 L 80.928 17.472 L 72.288 64.32 L 60.864 64.32 L 55.296 28.896 L 49.728 64.32 L 38.304 64.32 L 29.76 17.472 L 37.92 17.472 L 44.16 56.928 L 50.208 17.472 L 60.48 17.472 L 66.336 56.928 Z M 225.12 13.824 L 225.12 54.816 Q 225.12 56.093 225.472 56.723 A 1.362 1.362 0 0 0 225.696 57.024 Q 226.164 57.492 227.391 57.58 A 8.546 8.546 0 0 0 228 57.6 L 230.688 57.6 L 230.688 64.416 L 225.312 64.416 Q 222.457 64.416 220.542 63.587 A 6.363 6.363 0 0 1 218.544 62.256 Q 216.711 60.423 216.433 57.103 A 14.792 14.792 0 0 1 216.384 55.872 L 216.384 12.672 Q 216.384 9.684 217.516 7.727 A 6.471 6.471 0 0 1 218.544 6.384 Q 220.204 4.724 223.309 4.34 A 16.333 16.333 0 0 1 225.312 4.224 L 231.264 4.224 L 231.264 11.04 L 228 11.04 A 8.87 8.87 0 0 0 227.253 11.069 Q 226.137 11.164 225.696 11.568 A 1.304 1.304 0 0 0 225.395 12.008 Q 225.12 12.629 225.12 13.824 Z M 260.928 0.096 L 260.928 64.32 L 252.288 64.32 L 252.288 0.096 L 260.928 0.096 Z M 103.392 9.504 L 112.128 9.504 L 112.128 54.144 Q 112.128 55.421 112.48 56.051 A 1.362 1.362 0 0 0 112.704 56.352 A 1.513 1.513 0 0 0 113.196 56.668 Q 113.816 56.928 114.912 56.928 L 118.56 56.928 L 118.56 64.32 L 112.416 64.32 Q 109.587 64.32 107.679 63.539 A 6.38 6.38 0 0 1 105.552 62.16 Q 103.642 60.25 103.421 56.8 A 14.532 14.532 0 0 1 103.392 55.872 L 103.392 9.504 Z M 98.976 17.472 L 98.976 24.48 L 118.56 24.48 L 118.56 17.472 L 98.976 17.472 Z M 124.416 9.504 L 133.152 9.504 L 133.152 54.144 Q 133.152 55.421 133.504 56.051 A 1.362 1.362 0 0 0 133.728 56.352 A 1.513 1.513 0 0 0 134.22 56.668 Q 134.84 56.928 135.936 56.928 L 139.584 56.928 L 139.584 64.32 L 133.44 64.32 Q 130.611 64.32 128.703 63.539 A 6.38 6.38 0 0 1 126.576 62.16 Q 124.666 60.25 124.445 56.8 A 14.532 14.532 0 0 1 124.416 55.872 L 124.416 9.504 Z M 120 17.472 L 120 24.48 L 139.584 24.48 L 139.584 17.472 L 120 17.472 Z M 331.584 26.016 L 331.584 64.32 L 322.944 64.32 L 322.944 27.264 A 8.19 8.19 0 0 0 322.916 26.565 Q 322.854 25.843 322.652 25.413 A 1.273 1.273 0 0 0 322.368 25.008 Q 321.908 24.586 320.714 24.501 A 9.186 9.186 0 0 0 320.064 24.48 L 316.704 24.48 A 5.508 5.508 0 0 0 315.833 24.544 Q 315.373 24.618 315.009 24.777 A 2.263 2.263 0 0 0 314.304 25.248 A 2.212 2.212 0 0 0 313.821 26.009 Q 313.556 26.679 313.537 27.69 A 8.356 8.356 0 0 0 313.536 27.84 L 313.536 30.912 L 313.152 30.912 L 313.152 24 A 10.927 10.927 0 0 1 313.289 22.208 Q 313.447 21.258 313.789 20.512 A 4.471 4.471 0 0 1 314.88 19.008 Q 316.588 17.49 319.421 17.472 A 10.731 10.731 0 0 1 319.488 17.472 L 322.944 17.472 A 14.314 14.314 0 0 1 325.363 17.662 Q 327.987 18.113 329.472 19.632 A 6.846 6.846 0 0 1 331.072 22.358 Q 331.42 23.431 331.532 24.735 A 15.057 15.057 0 0 1 331.584 26.016 Z M 10.08 64.32 L 10.08 5.376 L 18.72 5.376 L 18.72 64.32 L 10.08 64.32 Z M 94.272 17.472 L 94.272 64.32 L 85.632 64.32 L 85.632 17.472 L 94.272 17.472 Z M 187.968 26.208 L 187.968 64.32 L 179.328 64.32 L 179.328 17.472 L 187.968 17.472 L 187.968 26.208 Z M 313.536 23.904 L 313.536 64.32 L 304.896 64.32 L 304.896 17.472 L 313.536 17.472 L 313.536 23.328 L 313.536 23.904 Z M 277.44 27.168 L 277.44 49.056 L 268.896 49.056 L 268.896 26.016 A 13.466 13.466 0 0 1 269.102 23.578 Q 269.35 22.232 269.897 21.178 A 6.431 6.431 0 0 1 271.008 19.632 Q 272.607 17.996 275.638 17.599 A 16.122 16.122 0 0 1 277.728 17.472 L 283.2 17.472 L 283.2 24.288 L 280.32 24.288 A 8.87 8.87 0 0 0 279.573 24.317 Q 278.457 24.412 278.016 24.816 A 1.268 1.268 0 0 0 277.725 25.244 Q 277.441 25.882 277.44 27.155 A 11.334 11.334 0 0 0 277.44 27.168 Z M 268.896 44.352 L 268.896 55.872 A 14.688 14.688 0 0 0 268.933 56.928 Q 269.027 58.234 269.362 59.316 A 6.918 6.918 0 0 0 271.008 62.16 A 6.211 6.211 0 0 0 273.063 63.528 Q 274.938 64.32 277.728 64.32 L 282.912 64.32 L 282.912 57.504 L 280.32 57.504 A 8.546 8.546 0 0 1 279.711 57.484 Q 278.956 57.43 278.489 57.232 A 1.468 1.468 0 0 1 278.016 56.928 A 1.39 1.39 0 0 1 277.753 56.545 Q 277.44 55.897 277.44 54.624 L 277.44 44.352 L 268.896 44.352 Z M 0 4.224 L 28.8 4.224 L 28.8 11.232 L 0 11.232 L 0 4.224 Z M 288.384 54.624 L 288.384 44.928 L 296.928 44.928 L 296.928 55.872 A 12.947 12.947 0 0 1 296.722 58.26 Q 296.268 60.675 294.816 62.16 A 6.303 6.303 0 0 1 292.497 63.627 Q 291.495 64.006 290.244 64.178 A 16.539 16.539 0 0 1 288 64.32 L 282.144 64.32 L 282.144 57.504 L 285.504 57.504 A 9.07 9.07 0 0 0 286.24 57.476 Q 287.429 57.379 287.846 56.939 A 0.915 0.915 0 0 0 287.856 56.928 Q 288.278 56.468 288.363 55.274 A 9.186 9.186 0 0 0 288.384 54.624 Z M 296.928 48.96 L 296.928 26.016 A 15.057 15.057 0 0 0 296.876 24.735 Q 296.764 23.431 296.416 22.358 A 6.846 6.846 0 0 0 294.816 19.632 Q 292.704 17.472 288 17.472 L 282.624 17.472 L 282.624 24.288 L 285.504 24.288 Q 286.815 24.288 287.456 24.561 A 1.249 1.249 0 0 1 287.856 24.816 A 0.898 0.898 0 0 1 287.891 24.853 Q 288.384 25.406 288.384 27.168 L 288.384 48.96 L 296.928 48.96 Z M 244.512 23.04 L 235.68 23.04 L 235.68 13.824 Q 235.68 12.112 235.162 11.578 A 0.923 0.923 0 0 0 235.152 11.568 A 1.286 1.286 0 0 0 234.74 11.304 Q 234.118 11.04 232.896 11.04 L 229.728 11.04 L 229.728 4.224 L 235.488 4.224 Q 238.317 4.224 240.225 5.005 A 6.38 6.38 0 0 1 242.352 6.384 Q 244.262 8.294 244.483 11.744 A 14.532 14.532 0 0 1 244.512 12.672 L 244.512 23.04 Z M 235.68 54.816 L 235.68 45.696 L 244.512 45.696 L 244.512 55.872 A 13.175 13.175 0 0 1 244.301 58.31 Q 244.044 59.675 243.472 60.74 A 6.429 6.429 0 0 1 242.352 62.256 A 6.506 6.506 0 0 1 239.975 63.733 Q 238.134 64.416 235.488 64.416 L 229.728 64.416 L 229.728 57.6 L 232.896 57.6 A 8.19 8.19 0 0 0 233.595 57.572 Q 234.317 57.51 234.747 57.308 A 1.273 1.273 0 0 0 235.152 57.024 A 1.507 1.507 0 0 0 235.43 56.561 Q 235.612 56.109 235.661 55.392 A 8.364 8.364 0 0 0 235.68 54.816 Z M 147.648 37.248 L 171.936 37.248 L 171.936 43.584 L 147.648 43.584 L 147.648 37.248 Z M 153.024 27.072 Q 153.024 25.877 153.299 25.256 A 1.304 1.304 0 0 1 153.6 24.816 Q 154.041 24.412 155.157 24.317 A 8.87 8.87 0 0 1 155.904 24.288 L 158.784 24.288 L 158.784 17.472 L 153.504 17.472 A 16.333 16.333 0 0 0 151.501 17.588 Q 148.396 17.972 146.736 19.632 A 6.429 6.429 0 0 0 145.616 21.148 Q 145.044 22.213 144.787 23.578 A 13.175 13.175 0 0 0 144.576 26.016 L 144.576 55.872 A 14.532 14.532 0 0 0 144.605 56.8 Q 144.826 60.25 146.736 62.16 A 6.363 6.363 0 0 0 148.734 63.491 Q 150.649 64.32 153.504 64.32 L 158.304 64.32 L 158.304 57.504 L 155.904 57.504 A 8.546 8.546 0 0 1 155.295 57.484 Q 154.54 57.43 154.073 57.232 A 1.468 1.468 0 0 1 153.6 56.928 A 1.362 1.362 0 0 1 153.376 56.627 Q 153.024 55.997 153.024 54.72 L 153.024 27.072 Z M 171.936 42.336 L 171.936 26.016 A 14.792 14.792 0 0 0 171.887 24.785 Q 171.609 21.465 169.776 19.632 A 6.38 6.38 0 0 0 167.649 18.253 Q 165.741 17.472 162.912 17.472 L 157.536 17.472 L 157.536 24.288 L 160.608 24.288 Q 161.83 24.288 162.452 24.552 A 1.286 1.286 0 0 1 162.864 24.816 A 0.923 0.923 0 0 1 162.874 24.826 Q 163.392 25.36 163.392 27.072 L 163.392 42.336 L 171.936 42.336 Z M 342.816 37.248 L 367.104 37.248 L 367.104 43.584 L 342.816 43.584 L 342.816 37.248 Z M 348.192 27.072 Q 348.192 25.877 348.467 25.256 A 1.304 1.304 0 0 1 348.768 24.816 Q 349.209 24.412 350.325 24.317 A 8.87 8.87 0 0 1 351.072 24.288 L 353.952 24.288 L 353.952 17.472 L 348.672 17.472 A 16.333 16.333 0 0 0 346.669 17.588 Q 343.564 17.972 341.904 19.632 A 6.429 6.429 0 0 0 340.784 21.148 Q 340.212 22.213 339.955 23.578 A 13.175 13.175 0 0 0 339.744 26.016 L 339.744 55.872 A 14.532 14.532 0 0 0 339.773 56.8 Q 339.994 60.25 341.904 62.16 A 6.363 6.363 0 0 0 343.902 63.491 Q 345.817 64.32 348.672 64.32 L 353.472 64.32 L 353.472 57.504 L 351.072 57.504 A 8.546 8.546 0 0 1 350.463 57.484 Q 349.708 57.43 349.241 57.232 A 1.468 1.468 0 0 1 348.768 56.928 A 1.362 1.362 0 0 1 348.544 56.627 Q 348.192 55.997 348.192 54.72 L 348.192 27.072 Z M 367.104 42.336 L 367.104 26.016 A 14.792 14.792 0 0 0 367.055 24.785 Q 366.777 21.465 364.944 19.632 A 6.38 6.38 0 0 0 362.817 18.253 Q 360.909 17.472 358.08 17.472 L 352.704 17.472 L 352.704 24.288 L 355.776 24.288 Q 356.998 24.288 357.62 24.552 A 1.286 1.286 0 0 1 358.032 24.816 A 0.923 0.923 0 0 1 358.042 24.826 Q 358.56 25.36 358.56 27.072 L 358.56 42.336 L 367.104 42.336 Z M 163.2 54.624 L 163.2 50.784 L 171.648 50.784 L 171.648 55.872 A 12.947 12.947 0 0 1 171.442 58.26 Q 170.988 60.675 169.536 62.16 A 6.303 6.303 0 0 1 167.217 63.627 Q 166.215 64.006 164.964 64.178 A 16.539 16.539 0 0 1 162.72 64.32 L 157.536 64.32 L 157.536 57.504 L 160.32 57.504 A 9.07 9.07 0 0 0 161.056 57.476 Q 162.245 57.379 162.662 56.939 A 0.915 0.915 0 0 0 162.672 56.928 Q 163.094 56.468 163.179 55.274 A 9.186 9.186 0 0 0 163.2 54.624 Z M 358.368 54.624 L 358.368 50.784 L 366.816 50.784 L 366.816 55.872 A 12.947 12.947 0 0 1 366.61 58.26 Q 366.156 60.675 364.704 62.16 A 6.303 6.303 0 0 1 362.385 63.627 Q 361.383 64.006 360.132 64.178 A 16.539 16.539 0 0 1 357.888 64.32 L 352.704 64.32 L 352.704 57.504 L 355.488 57.504 A 9.07 9.07 0 0 0 356.224 57.476 Q 357.413 57.379 357.83 56.939 A 0.915 0.915 0 0 0 357.84 56.928 Q 358.262 56.468 358.347 55.274 A 9.186 9.186 0 0 0 358.368 54.624 Z M 195.552 17.376 L 197.472 17.376 L 197.472 24.96 L 194.016 24.96 Q 188.268 24.96 187.983 31.291 A 15.074 15.074 0 0 0 187.968 31.968 L 187.968 33.984 L 187.584 33.984 L 187.584 25.824 A 9.262 9.262 0 0 1 188.307 22.271 A 10.827 10.827 0 0 1 188.496 21.84 Q 189.408 19.872 191.184 18.624 Q 192.96 17.376 195.552 17.376 Z M 94.464 8.544 L 85.44 8.544 L 85.44 0 L 94.464 0 L 94.464 8.544 Z" vector-effect="non-scaling-stroke"/></g></svg>